,
.   http://www.scenetime.com/signup.php  ---&gt;  Hottest scene tracker on the net !!!  

    Join Now   http://www.scenetime.com/signup.php

    seed back for speed


 



...................................NFO:.................................................[IMG]http://img818.imageshack.us/img818/6483/needle081a2536.jpg[/IMG]


[color=blue][size=5][b]Needle.2010.DVDRip.XVID.AC3.HQ.Hive-CM8[/b][/size][/color]


[b]Thx Hive

CM8 Doing It Right The First Time :D


Source: DVD-R

Encode:
DVD had good quality, added brightness, sharpness, rgb and denoise
looks like a very good movie :P
got very nice

Video: 720x304 @bitrate 1800 2pass
Audio: English AC3 5.1 @448
Sample: Yes, included[/b]
 
http://www.imdb.com/title/tt1545315/


General
Complete name                  : Needle.2010.DVDRip.XVID.AC3.HQ.Hive-CM8.avi
Format                         : AVI
Format/Info                    : Audio Video Interleave
File size                      : 1.41 GiB
Duration                       : 1h 29mn
Overall bit rate               : 2 258 Kbps
Writing application            : Nandub v1.0rc2
Writing library                : Nandub build 1853/release

Video
ID                             : 0
Format                         : MPEG-4 Visual
Format profile                 : Advanced Simple@L5
Format settings, BVOP          : 2
Format settings, QPel          : Yes
Format settings, GMC           : No warppoints
Format settings, Matrix        : Default (H.263)
Muxing mode                    : Packed bitstream
Codec ID                       : XVID
Codec ID/Hint                  : XviD
Duration                       : 1h 29mn
Bit rate                       : 1 800 Kbps
Width                          : 720 pixels
Height                         : 304 pixels
Display aspect ratio           : 2.35:1
Frame rate                     : 23.976 fps
Color space                    : YUV
Chroma subsampling             : 4:2:0
Bit depth                      : 8 bits
Scan type                      : Progressive
Compression mode               : Lossy
Bits/(Pixel*Frame)             : 0.343
Stream size                    : 1.12 GiB (80%)
Writing library                : XviD 1.2.1 (UTC 2008-12-04)

Audio
ID                             : 1
Format                         : AC-3
Format/Info                    : Audio Coding 3
Mode extension                 : CM (complete main)
Codec ID                       : 2000
Duration                       : 1h 29mn
Bit rate mode                  : Constant
Bit rate                       : 448 Kbps
Channel(s)                     : 6 channels
Channel positions              : Front: L C R, Side: L R, LFE
Sampling rate                  : 48.0 KHz
Bit depth                      : 16 bits
Compression mode               : Lossy
Stream size                    : 286 MiB (20%)
Alignment                      : Split accross interleaves
Interleave, duration           : 42 ms (1.00 video frame)
Interleave, preload duration   : 500 ms


Plot:
A killer uses an 18th century machine with supernatural powers to
terrorize students at a college.


Cast:
Ben Mendelsohn   ...    Detective Meares
Jane Badler      ...    Professor Banyon
Tahyna Tozzi     ...    Mary
Travis Fimmel    ...    Marcus Rutherford


[img]http://img823.imageshack.us/img823/2400/91396243.png[/img]
[img]http://img33.imageshack.us/img33/9394/nenef.png[/img]
[img]http://img52.imageshack.us/img52/2698/nenene.png[/img]
[img]http://img52.imageshack.us/img52/4263/nenenene.png[/img]
[img]http://img687.imageshack.us/img687/4528/nenenenene.png[/img]
[img]http://img690.imageshack.us/img690/9522/nenenenenene.png[/img]
[img]http://img502.imageshack.us/img502/7008/nenenenenenene.png[/img]
[img]http://img42.imageshack.us/img42/6492/nenenenenenenene.png[/img]



Greetz

ViSiON,SPK,SANTi,3LT0N,FUSiON,YanKeeS,MAGNET,T0XiC,Feel-Free,FANTASIA-PLAY,FANTASIA-M,FLAWL3SS,
WBZ,BHRG,NOVA,D2U,THC,LKRG,Vik,Rapeseed,SAFC,goldadvance,MEMORY100,KaN1vE,Unevano,Pinnz,Wayne,
Mr Hive,and most P2P groups
Great Work Guys :D

LOOKING FOR ANYTHING YOU WANT TO LOOK AND SOUND BETTER

CM8@hushmail.com